#!OML:ASF E:\Style6\Style6.ASF
:FULLY-SPECIFIED
:DEGREES
3708
root 0.373149 18.2902 0.0825926 11.4057 -12.8563 -3.38687
lowerback -4.5956 -0.769798 1.78387
upperback -2.95339 -1.10605 2.72986
thorax -0.438054 -0.560486 1.75652
lowerneck -4.35137 -7.01968 0.930187
upperneck 8.02546 -9.0021 -6.29485
head 2.99679 -4.68782 -2.55286
rclavicle -3.23025e-015 0
rhumerus -36.1712 -13.1639 -72.5223
rradius 28.7608
rwrist 28.5582
rhand -5.54758 12.9876
rfingers 7.12502
rthumb 20.2672 -15.975
lclavicle -3.23025e-015 0
lhumerus -39.083 19.1602 71.4614
lradius 16.7076
lwrist -29.867
lhand -5.42848 18.8248
lfingers 7.12502
lthumb 20.3817 47.7752
rfemur -9.59857 20.9153 17.9993
rtibia 1.90833e-014
rfoot 3.83949 -14.1645
rtoes -23.1883
lfemur -14.6634 -16.4593 -14.8211
ltibia 19.051
lfoot -9.90604 29.1803
ltoes -1.36355
3709
root 0.369398 18.2905 0.0795936 11.3933 -12.7694 -3.31869
lowerback -4.58972 -0.762032 1.70666
upperback -2.97232 -1.09185 2.69482
thorax -0.460177 -0.552632 1.76462
lowerneck -4.30563 -7.049 0.871834
upperneck 8.00841 -9.04491 -6.19835
head 2.98746 -4.70629 -2.50918
rclavicle 1.31695e-015 2.26615e-014
rhumerus -36.1726 -13.1332 -72.6082
rradius 28.8596
rwrist 28.4516
rhand -5.40765 12.7925
rfingers 7.12502
rthumb 20.4017 -16.1558
lclavicle 1.31695e-015 2.26615e-014
lhumerus -39.2542 19.2458 71.288
lradius 16.877
lwrist -29.9279
lhand -5.37831 18.9446
lfingers 7.12502
lthumb 20.4299 47.8899
rfemur -9.58838 20.8184 17.9597
rtibia -1.27222e-014
rfoot 3.73093 -14.2169
rtoes -22.3008
lfemur -14.6877 -16.4578 -14.8602
ltibia 19.0036
lfoot -9.66666 29.1534
ltoes -1.87013
3710
root 0.366392 18.2908 0.0776717 11.3117 -12.6946 -3.20647
lowerback -4.53302 -0.759987 1.58759
upperback -2.96733 -1.08272 2.65302
thorax -0.485263 -0.546732 1.78949
lowerneck -4.28033 -7.05275 0.873392
upperneck 7.98051 -9.05487 -6.14674
head 2.97495 -4.70854 -2.49013
rclavicle 1.14301e-015 -1.07344e-014
rhumerus -36.1588 -13.0536 -72.7048
rradius 28.9175
rwrist 28.5178
rhand -5.34403 12.598
rfingers 7.12502
rthumb 20.4628 -16.3438
lclavicle 1.14301e-015 -1.07344e-014
lhumerus -39.4613 19.846 70.8379
lradius 16.9976
lwrist -30.5259
lhand -5.15665 19.0204
lfingers 7.12502
lthumb 20.6429 47.9427
rfemur -9.51012 20.7251 17.8862
rtibia -8.74653e-015
rfoot 3.58379 -14.2497
rtoes -21.4645
lfemur -14.6309 -16.4815 -14.9698
ltibia 18.9631
lfoot -9.51031 29.0901
ltoes -2.53107
3711
root 0.363948 18.2897 0.0745999 11.34 -12.564 -3.16676
lowerback -4.55908 -0.752023 1.57486
upperback -2.99495 -1.07149 2.61208
thorax -0.499849 -0.541237 1.75488
lowerneck -4.32385 -7.07464 0.878597
upperneck 8.06289 -9.08515 -6.09199
head 3.01228 -4.7226 -2.48001
rclavicle 1.34428e-014 -8.74653e-015
rhumerus -36.1679 -12.9827 -72.8206
rradius 29.0059
rwrist 28.6234
rhand -5.22324 12.3881
rfingers 7.12502
rthumb 20.5789 -16.541
lclavicle 1.34428e-014 -8.74653e-015
lhumerus -39.5216 20.1321 70.5882
lradius 17.0085
lwrist -30.82
lhand -5.05914 19.1257
lfingers 7.12502
lthumb 20.7366 48.0378
rfemur -9.5355 20.5892 17.8669
rtibia -3.69739e-014
rfoot 3.5166 -14.271
rtoes -20.9442
lfemur -14.6992 -16.5106 -14.9569
ltibia 18.9357
lfoot -9.4181 28.9952
ltoes -2.82495
3712
root 0.361502 18.2901 0.072249 11.3968 -12.4183 -3.1923
lowerback -4.61575 -0.744287 1.62428
upperback -3.04167 -1.06343 2.60078
thorax -0.51763 -0.53803 1.71558
lowerneck -4.29429 -7.10858 0.823977
upperneck 8.13347 -9.12868 -6.03212
head 3.0343 -4.74392 -2.45394
rclavicle -1.51573e-014 3.49861e-014
rhumerus -36.2035 -12.9295 -72.8832
rradius 29.0311
rwrist 28.6118
rhand -5.20119 12.4498
rfingers 7.12502
rthumb 20.6001 -16.4771
lclavicle -1.51573e-014 3.49861e-014
lhumerus -39.5402 19.9771 70.635
lradius 17.0596
lwrist -30.6355
lhand -5.09281 19.1711
lfingers 7.12502
lthumb 20.7042 48.0866
rfemur -9.56628 20.4524 17.9191
rtibia 3.97569e-016
rfoot 3.46657 -14.2743
rtoes -20.7146
lfemur -14.7839 -16.5123 -14.875
ltibia 18.9139
lfoot -9.56798 28.8758
ltoes -2.22385
